<svg xmlns="http://www.w3.org/2000/svg" viewBox="0 0 15 15"><path fill="none" stroke="#fccab0" d="M9 11a1.5 1.497 0 0 1-.75 1.296 1.5 1.497 0 0 1-1.5 0A1.5 1.497 0 0 1 6 11m1.5-.388c.33-.727 1.523-1.197 2.789-1.099 1.265.098 2.211.735 2.211 1.487V5c0-.752-.946-1.389-2.211-1.487-1.266-.098-2.459.372-2.789 1.1Zm0 0c-.33-.727-1.523-1.197-2.789-1.099C3.446 9.611 2.5 10.248 2.5 11V5c0-.752.946-1.389 2.211-1.487 1.266-.098 2.459.372 2.789 1.1zM2.947 4.5H.5v8h4.095l2.048-2.051h1.714l2.048 2.051H14.5v-8h-2.447"/></svg>
