<svg xmlns="http://www.w3.org/2000/svg" viewBox="0 0 15 15"><path fill="none" stroke="currentColor" d="M8 2.553h7m-8 2h8m-6 2h6m-6 2h6m-6 2h6m-15 0h1.5m-1.5-6h1m-1-2h3m1.19 6.151a.995.995 0 0 1-.396-1.303c.232-.47.791-.928 1.277-.727.672-.334 1.446-.106 1.913.563s.519 1.622.128 2.358c-.39.735-1.133 1.081-1.836.856a3 3 0 0 1-3.074-.97c-.75-.893-.914-2.505-.42-3.562A3 3 0 0 1 4.5 4.187m-.5 7.5a1 1 0 1 0 1.5.866L4.375.666C4.82.432 5.564.39 6.068.936c.505.545.602 1.496.224 2.191s-1.105 1.05-1.675.626"/></svg>