<svg xmlns="http://www.w3.org/2000/svg" viewBox="0 0 15 15"><path fill="none" stroke="currentColor" d="M8.5 7.028a1 1.5 0 0 1 1-1.5 1 1.5 0 0 1 1 1.5m-6 0a1 1.5 0 0 1 1-1.5 1 1.5 0 0 1 1 1.5m1.335-3.5c.566-.98 1.72-1.207 2.812-.915A2.5 2.5 0 0 1 12.5 5.028c0 3.037-.953 5.843-2.5 7.362-1.547 1.518-3.453 1.518-5 0S2.5 8.065 2.5 5.028a2.5 2.5 0 0 1 1.853-2.415c1.093-.292 2.246-.065 2.812.915Z"/><path fill="currentColor" d="M5 9.028a2.5 3 0 0 0 2.5 3 2.5 3 0 0 0 2.5-3h-.645a2.5 3 0 0 1-1.855 1 2.5 3 0 0 1-1.855-1z"/></svg>