<svg xmlns="http://www.w3.org/2000/svg" viewBox="0 0 15 15"><path fill="#9afcd4" d="m7.503 5.006.773 1.642 1.728.263-1.25 1.278.295 1.805-1.546-.852-1.545.852.295-1.805-1.25-1.278 1.728-.263Zm6.791 5.28h.707v.706h-.707z"/><path fill="none" stroke="#9afcd4" stroke-miterlimit="2" d="m3.483 4.104-1.497 6.791-1.497-6.79m14.102 6.512-3.12-3.069h1.496c2.044.052 2.044-2.997 0-2.945H11.47v6.381"/><path fill="#9afcd4" d="M.976 4H.002v.208zm2.02 0 .974.001v.207M.976 4.001 0 4.208 1.498 11h.975L3.97 4.208l-.975-.207-1.01 4.58Zm9.995.111v6.873h.998v-2.25l2.27 2.23.705-.695-2.267-2.23h.277c.636.017 1.182-.227 1.532-.607s.512-.872.512-1.357-.162-.978-.512-1.359c-.35-.38-.896-.621-1.532-.605Zm2.01.982c.385-.01.605.11.766.285s.253.433.253.697c0 .265-.092.52-.253.696s-.381.294-.766.284h-1.012v-1.96h1.004z"/></svg>